<?xml version="1.0" standalone="no"?>
<!DOCTYPE svg PUBLIC "-//W3C//DTD SVG 20010904//EN"
 "http://www.w3.org/TR/2001/REC-SVG-20010904/DTD/svg10.dtd">
<svg version="1.0" xmlns="http://www.w3.org/2000/svg"
 width="512.000000pt" height="512.000000pt" viewBox="0 0 512.000000 512.000000"
 preserveAspectRatio="xMidYMid meet">
  <!-- Dégradé -->
  <linearGradient id="gradient" x1="0%" y1="0%" x2="100%" y2="0%">
    <stop offset="0%" style="stop-color:#EE798A; stop-opacity:1" />
    <stop offset="100%" style="stop-color:#EA4335; stop-opacity:1" />
  </linearGradient>

<g transform="translate(0.000000,512.000000) scale(0.100000,-0.100000)"
fill="url(#gradient)" stroke="none">
<path d="M412 5100 c-97 -26 -173 -70 -248 -144 -75 -76 -119 -151 -144 -252
-20 -76 -20 -115 -20 -2144 0 -2029 0 -2068 20 -2144 25 -101 69 -176 144
-252 76 -75 151 -119 252 -144 76 -20 115 -20 2144 -20 2029 0 2068 0 2144 20
101 25 176 69 252 144 75 76 119 151 144 252 20 76 20 115 20 2144 0 2029 0
2068 -20 2144 -25 101 -69 176 -144 252 -76 75 -151 119 -252 144 -76 20 -114
20 -2148 19 -2010 0 -2073 -1 -2144 -19z m2405 -225 c270 -35 588 -153 803
-298 l50 -34 -203 -301 c-111 -166 -206 -301 -210 -302 -5 0 -21 8 -35 19
-141 99 -428 191 -597 191 l-50 0 -138 233 c-175 298 -155 273 -195 250 -17
-10 -32 -21 -32 -26 0 -4 50 -106 110 -227 61 -121 110 -224 110 -228 0 -5
-33 -14 -72 -21 -106 -17 -269 -75 -376 -132 -51 -27 -94 -49 -96 -49 -4 0
-412 549 -429 576 -5 9 21 30 88 69 258 152 553 252 835 284 123 14 311 12
437 -4z m1245 -1246 c204 -42 379 -218 423 -426 22 -102 22 -2075 0 -2178 -42
-201 -203 -368 -402 -420 -86 -23 -2970 -23 -3056 0 -179 47 -323 181 -389
365 l-23 65 -3 1035 c-2 701 1 1057 8 1104 6 41 27 104 50 154 68 145 208 260
363 298 70 17 2947 20 3029 3z"/>
</g>
</svg>
